<?xml version="1.0" standalone="no"?>
<!DOCTYPE svg PUBLIC "-//W3C//DTD SVG 20010904//EN"
 "http://www.w3.org/TR/2001/REC-SVG-20010904/DTD/svg10.dtd">
<svg version="1.0" xmlns="http://www.w3.org/2000/svg"
 width="544.000000pt" height="70.000000pt" viewBox="0 0 544.000000 70.000000"
 preserveAspectRatio="xMidYMid meet">
<metadata>
Created by potrace 1.15, written by Peter Selinger 2001-2017
</metadata>
<g transform="translate(0.000000,70.000000) scale(0.100000,-0.100000)"
fill="#000000" stroke="none">
<path d="M2510 450 l0 -250 55 0 55 0 0 130 c0 129 0 131 25 142 19 9 29 8 50
-6 25 -16 25 -19 25 -141 l0 -125 51 0 50 0 -3 151 -3 151 -34 30 c-29 26 -39
29 -80 26 -25 -3 -54 -8 -63 -12 -16 -7 -18 -1 -18 73 l0 81 -55 0 -55 0 0
-250z"/>
<path d="M130 569 c0 -72 3 -89 15 -89 9 0 15 9 15 24 0 21 5 25 29 24 39 -1
49 7 57 47 10 55 -15 84 -71 83 l-45 -1 0 -88z"/>
<path d="M3570 600 c0 -36 -2 -40 -25 -40 -22 0 -25 -4 -25 -40 0 -36 3 -40
24 -40 23 0 24 -2 28 -112 2 -76 8 -120 18 -136 18 -27 75 -44 119 -36 28 6
31 10 31 45 0 34 -3 38 -27 41 l-28 3 -3 98 -3 97 31 0 c30 0 31 2 28 38 -3
32 -7 37 -30 40 -25 3 -28 7 -28 43 l0 39 -55 0 -55 0 0 -40z"/>
<path d="M2220 542 c-55 -27 -82 -89 -78 -179 5 -110 54 -164 149 -166 66 -1
106 17 136 62 37 55 32 71 -25 71 -39 0 -49 -4 -57 -22 -8 -18 -18 -23 -45
-23 -42 0 -60 28 -60 93 0 76 40 117 86 87 13 -8 24 -22 24 -30 0 -11 13 -15
51 -15 l52 0 -7 32 c-3 18 -13 43 -22 56 -33 50 -137 68 -204 34z"/>
<path d="M2974 546 c-36 -16 -74 -61 -74 -87 0 -29 90 -27 108 1 22 36 82 20
82 -22 0 -15 -8 -18 -47 -18 -58 0 -126 -32 -141 -66 -45 -98 49 -188 158
-150 22 7 40 10 40 5 0 -5 25 -9 56 -9 50 0 55 2 49 18 -4 9 -10 73 -12 142
-4 87 -9 132 -20 148 -30 48 -132 67 -199 38z"/>
<path d="M3280 380 l0 -180 50 0 50 0 0 114 c0 129 7 146 66 146 l34 0 0 50
c0 50 0 50 -33 50 -18 0 -38 -5 -45 -12 -9 -9 -15 -9 -24 0 -7 7 -31 12 -55
12 l-43 0 0 -180z"/>
<path d="M3865 550 c-40 -16 -70 -59 -70 -101 0 -52 27 -77 112 -104 59 -19
68 -26 68 -46 0 -39 -77 -39 -90 1 -5 16 -15 20 -56 20 -48 0 -50 -1 -44 -22
21 -68 71 -101 156 -101 72 0 118 25 137 75 13 33 12 41 -4 75 -17 34 -26 40
-94 62 -77 25 -92 35 -83 57 11 28 83 19 83 -11 0 -12 12 -15 54 -15 53 0 53
0 48 28 -6 35 -29 61 -69 78 -35 15 -116 18 -148 4z"/>
<path d="M4504 546 c-113 -51 -125 -253 -18 -325 27 -19 48 -24 93 -24 104 0
160 55 168 167 4 50 0 69 -19 105 -13 25 -35 54 -50 65 -35 25 -130 32 -174
12z m100 -77 c32 -15 50 -68 41 -117 -9 -48 -31 -72 -66 -72 -40 0 -63 38 -62
103 1 42 5 55 27 74 32 27 28 26 60 12z"/>
<path d="M4820 380 l0 -180 50 0 50 0 0 113 c0 128 9 147 68 147 32 0 32 1 32
50 0 48 -1 50 -28 50 -15 0 -38 -7 -50 -16 -20 -14 -22 -14 -22 0 0 12 -11 16
-50 16 l-50 0 0 -180z"/>
<path d="M5133 540 c-49 -30 -68 -73 -68 -160 0 -57 5 -83 20 -109 38 -64 96
-88 168 -68 20 5 27 4 27 -6 0 -43 -84 -62 -129 -30 -23 16 -25 15 -47 -12
-18 -22 -20 -32 -12 -43 23 -27 72 -44 129 -44 66 0 109 20 143 65 19 26 21
44 24 228 l4 199 -50 0 c-29 0 -52 -5 -54 -11 -3 -9 -9 -9 -25 0 -33 17 -94
13 -130 -9z m121 -70 c25 -9 26 -13 26 -88 0 -86 -8 -102 -52 -102 -39 0 -63
40 -62 104 0 41 5 53 28 73 31 27 27 26 60 13z"/>
<path d="M25 384 c-36 -39 -36 -124 0 -159 35 -36 105 -35 134 1 12 15 21 33
21 40 0 20 -50 17 -66 -3 -10 -14 -17 -16 -31 -7 -25 15 -29 76 -7 95 14 12
19 10 34 -9 24 -29 70 -30 70 -2 0 12 -11 32 -25 45 -35 36 -97 35 -130 -1z"/>
<path d="M255 398 c-34 -20 -44 -41 -45 -96 0 -68 29 -102 89 -102 22 0 47 3
56 6 24 10 45 58 45 104 0 76 -80 125 -145 88z"/>
<path d="M440 304 l0 -104 30 0 30 0 0 70 c0 70 0 71 30 77 25 4 30 10 30 33
0 28 -1 28 -60 29 l-60 0 0 -105z"/>
<path d="M620 397 c-54 -27 -59 -145 -7 -182 26 -18 95 -19 118 -2 26 20 39
53 39 97 0 78 -78 123 -150 87z"/>
<path d="M810 304 l0 -104 30 0 30 0 0 74 c0 58 3 75 16 80 28 11 34 -4 34
-80 l0 -74 35 0 35 0 0 69 c0 78 -14 128 -38 135 -10 2 -45 4 -79 5 l-63 0 0
-105z"/>
<path d="M1065 398 c-23 -13 -35 -28 -35 -45 0 -16 52 -17 67 -2 13 13 43 5
43 -11 0 -5 -16 -10 -35 -10 -49 0 -90 -40 -80 -78 10 -42 30 -51 112 -51 63
0 74 3 69 15 -3 9 -6 47 -6 84 0 58 -3 72 -22 90 -24 22 -80 27 -113 8z"/>
<path d="M1257 304 c35 -105 35 -105 66 -102 31 3 37 15 92 189 5 16 1 19 -28
19 -34 0 -35 -2 -47 -50 -7 -27 -15 -50 -19 -50 -4 0 -13 23 -20 50 -12 47
-15 50 -46 50 l-34 0 36 -106z"/>
<path d="M1560 304 l0 -104 30 0 29 0 3 73 c3 70 4 72 31 75 22 3 27 8 27 32
0 28 -1 28 -60 29 l-60 0 0 -105z"/>
<path d="M1710 321 c0 -115 5 -120 105 -120 l75 0 0 105 0 104 -35 0 -34 0 -3
-77 c-3 -70 -5 -78 -23 -78 -18 0 -20 8 -23 78 l-3 77 -29 0 -30 0 0 -89z"/>
<path d="M1952 394 c-44 -30 -22 -96 36 -110 15 -4 33 -11 40 -17 22 -18 -10
-28 -35 -12 -28 19 -73 20 -73 2 0 -30 45 -57 93 -57 107 0 121 101 18 127
-39 10 -54 33 -22 33 12 0 21 -4 21 -10 0 -5 16 -10 35 -10 41 0 44 12 10 45
-29 29 -88 34 -123 9z"/>
<path d="M4197 312 c-21 -23 -22 -76 -1 -96 24 -25 90 -21 108 6 22 31 20 64
-4 88 -26 26 -81 26 -103 2z"/>
</g>
</svg>
